# xmcd
#
# Track frame offsets:
# 150
# 68769
# 131083
#
# Disc length: 3046 seconds
#
# Revision: 0
# Processed by: cddbd v1.5.2PL0 Copyright (c) Steve Scherf et al.
# Submitted via: Audion 3.0.2 (http://www.panic.com/audion/)
#
DISCID=250be403
DTITLE=Coil - Live One [CD1] London
DYEAR=1900
DGENRE=
TTITLE0=Everything keeps dissolving
TTITLE1=Queens of the circulating library
TTITLE2=Chasms
EXTD=
EXTT0=
EXTT1=
EXTT2=
PLAYORDER=
